PathFileType	4	(X/Y/Z)	SUBJ62_1_walk_RCNL2025.trc
DataRate	CameraRate	NumFrames	NumMarkers	Units	OrigDataRate	OrigDataStartFrame	OrigNumFrames
100	100	5	25	mm	100	237	315
Frame#	Time	R_Shoulder			L_Shoulder			C7			J_Notch			R_Elbow			L_Elbow			R_Wrist			L_Wrist			R_Asis			L_Asis			Sacral			Thoracic			Sternum			R_Thigh_Lateral			R_Knee_Lateral			R_Shank_Lateral			R_Ankle_Lateral			R_Heel			R_Toe			L_Thigh_Lateral			L_Knee_Lateral			L_Shank_Lateral			L_Ankle_Lateral			L_Heel			L_Toe		
		X1	Y1	Z1	X2	Y2	Z2	X3	Y3	Z3	X4	Y4	Z4	X5	Y5	Z5	X6	Y6	Z6	X7	Y7	Z7	X8	Y8	Z8	X9	Y9	Z9	X10	Y10	Z10	X11	Y11	Z11	X12	Y12	Z12	X13	Y13	Z13	X14	Y14	Z14	X15	Y15	Z15	X16	Y16	Z16	X17	Y17	Z17	X18	Y18	Z18	X19	Y19	Z19	X20	Y20	Z20	X21	Y21	Z21	X22	Y22	Z22	X23	Y23	Z23	X24	Y24	Z24	X25	Y25	Z25
237	2.36000000	1436.779785	1265.613159	5.473964	1411.576050	1285.911743	-332.029663	1350.066162	1340.853027	-161.950150	1481.109375	1255.400879	-171.345764	1364.079712	972.848328	68.454765	1451.085449	991.239197	-413.991547	1417.172485	758.250946	71.790339	1600.102234	828.657471	-399.645264	1487.827393	869.824280	-31.805372	1477.929077	855.139648	-290.383179	1308.620239	857.004211	-156.458878	1290.725952	1143.565796	-166.073578	1503.829224	1055.350830	-173.127899	1504.607788	480.642059	35.391701	1520.667847	424.861877	-40.803001	1533.004883	247.065811	-6.398799	1522.089844	56.887733	-81.700249	1469.850220	40.648727	-120.404831	1625.756226	40.587395	-97.387604	1401.470947	457.092072	-344.878845	1380.716309	399.399048	-296.105133	1242.166992	271.087524	-326.083618	1106.154175	173.918518	-258.445038	1083.442627	221.728271	-207.705109	1130.339600	65.284248	-253.561157
238	2.37000000	1448.490479	1266.864014	5.924101	1422.747681	1286.801880	-331.483490	1361.610474	1342.241333	-161.261276	1492.441406	1256.467285	-170.713638	1381.143311	973.340271	70.388992	1457.983154	991.090027	-412.214722	1438.965637	760.084473	73.353325	1601.245667	823.358185	-399.486511	1498.405518	870.585938	-30.252104	1488.505493	856.093994	-289.253723	1319.223755	858.149536	-154.893677	1301.810303	1145.126099	-164.922226	1514.621948	1056.354980	-172.189117	1510.441772	480.756012	36.201660	1525.301147	424.780884	-40.168758	1536.449585	246.774963	-6.215913	1522.253906	56.847691	-81.728638	1469.901855	40.819664	-120.405563	1625.834961	40.484055	-97.660217	1420.900269	457.394806	-343.707336	1402.568237	400.222443	-295.061890	1263.380737	275.356323	-325.533295	1126.675537	178.882278	-258.501099	1103.745117	225.999100	-207.278427	1151.563232	70.724663	-255.402237
239	2.38000000	1460.121948	1268.090454	6.295135	1433.779297	1287.613647	-331.018127	1373.086792	1343.636963	-160.631226	1503.677246	1257.485229	-170.150757	1398.248779	973.891663	72.210274	1464.680542	990.946045	-410.443878	1460.964661	762.176666	74.759752	1601.929810	818.231354	-399.313416	1508.870483	871.233887	-28.840551	1498.959595	857.159119	-288.284302	1329.699097	859.380249	-153.361099	1312.775513	1146.696411	-163.780579	1525.266602	1057.313354	-171.312180	1516.103149	480.836884	36.929874	1529.666260	424.685150	-39.602356	1539.529907	246.482849	-6.053612	1522.379395	56.803204	-81.763596	1469.927856	40.985939	-120.435661	1625.905273	40.410015	-97.905975	1439.407349	458.172058	-342.229492	1424.293579	401.688232	-293.914490	1285.192261	279.755859	-324.995178	1148.445312	182.783157	-258.499084	1124.787842	229.037994	-206.928268	1175.087158	75.538948	-257.009277
240	2.39000000	1471.657593	1269.315674	6.603601	1444.672119	1288.367310	-330.605164	1384.484131	1345.028320	-160.045944	1514.819824	1258.463623	-169.646423	1415.310425	974.508972	73.879578	1471.169067	990.832703	-408.682159	1483.119507	764.554626	75.994766	1602.174438	813.330505	-399.094406	1519.206055	871.809937	-27.550831	1509.343262	858.379639	-287.391693	1340.065674	860.694092	-151.904648	1323.636353	1148.255615	-162.653107	1535.795776	1058.239380	-170.475311	1521.626465	480.914825	37.584988	1533.787476	424.583435	-39.098789	1542.172241	246.171249	-5.897507	1522.481934	56.748760	-81.807785	1469.937012	41.161129	-120.491196	1625.976807	40.349861	-98.120461	1457.237793	459.346252	-340.510101	1445.909424	403.697052	-292.718994	1307.502441	284.077087	-324.486847	1171.325928	185.503189	-258.420349	1146.546265	230.781174	-206.623840	1200.581665	79.505043	-258.294983
241	2.40000000	1483.085815	1270.555298	6.867393	1455.423340	1289.080566	-330.222992	1395.793335	1346.399658	-159.491058	1525.871338	1259.409058	-169.191666	1432.195801	975.180298	75.353851	1477.436890	990.767334	-406.929810	1505.375854	767.233002	77.043968	1602.009644	808.703125	-398.800385	1529.401855	872.340271	-26.353485	1519.697998	859.778809	-286.496643	1350.341064	862.070923	-150.564407	1334.410522	1149.779541	-161.541122	1546.239258	1059.142700	-169.660080	1527.013306	481.002655	38.171146	1537.676270	424.481964	-38.653709	1544.318726	245.831421	-5.733840	1522.574219	56.682926	-81.864334	1469.936890	41.351074	-120.561699	1626.053223	40.290340	-98.299171	1474.686157	460.842834	-338.636505	1467.426025	406.112457	-291.524445	1330.223389	288.036591	-324.008636	1195.182129	186.964859	-258.250122	1168.989136	231.171814	-206.339828	1227.750244	82.489067	-259.206696
